<svg xmlns="http://www.w3.org/2000/svg" viewBox="0 0 900 520">
  <rect width="900" height="520" fill="#0f172a"/>
  <circle cx="705" cy="115" r="110" fill="#38bdf8" opacity=".15"/>
  <g stroke="#7dd3fc" stroke-width="8" stroke-linecap="round" opacity=".85">
    <line x1="120" y1="70" x2="92" y2="150"/>
    <line x1="245" y1="45" x2="217" y2="125"/>
    <line x1="370" y1="80" x2="342" y2="160"/>
    <line x1="690" y1="45" x2="662" y2="125"/>
    <line x1="810" y1="90" x2="782" y2="170"/>
  </g>
  <path d="M280 250 C370 120 555 120 650 250 Z" fill="#38bdf8"/>
  <path d="M280 250 C370 205 555 205 650 250" fill="none" stroke="#e0f2fe" stroke-width="8"/>
  <line x1="465" y1="250" x2="465" y2="405" stroke="#e0f2fe" stroke-width="10" stroke-linecap="round"/>
  <circle cx="465" cy="300" r="42" fill="#f8fafc"/>
  <path d="M420 355 Q465 325 510 355 L535 450 Q465 485 395 450 Z" fill="#94a3b8"/>
  <text x="70" y="460" fill="#f8fafc" font-size="40" font-family="Arial" font-weight="700">Persona bajo la lluvia</text>
</svg>
